<svg xmlns="http://www.w3.org/2000/svg" viewBox="0 0 16 16" width="16" height="16" shape-rendering="crispEdges">
<title>PyTeCK favicon</title>
<rect x="11" y="0" width="1" height="1" fill="#ED1C22"/>
<rect x="9" y="1" width="1" height="1" fill="#221E1E"/>
<rect x="10" y="1" width="1" height="1" fill="#ED1C22"/>
<rect x="11" y="1" width="1" height="1" fill="#F78F10"/>
<rect x="12" y="1" width="1" height="1" fill="#ED1C22"/>
<rect x="8" y="2" width="1" height="1" fill="#221E1E"/>
<rect x="9" y="2" width="1" height="1" fill="#ED1C22"/>
<rect x="10" y="2" width="2" height="1" fill="#FDE702"/>
<rect x="12" y="2" width="1" height="1" fill="#F3521A"/>
<rect x="13" y="2" width="1" height="1" fill="#221E1E"/>
<rect x="8" y="3" width="1" height="1" fill="#221E1E"/>
<rect x="9" y="3" width="1" height="1" fill="#F3521A"/>
<rect x="10" y="3" width="1" height="1" fill="#FDE702"/>
<rect x="11" y="3" width="1" height="1" fill="#F78F10"/>
<rect x="12" y="3" width="1" height="1" fill="#ED1C22"/>
<rect x="13" y="3" width="1" height="1" fill="#221E1E"/>
<rect x="7" y="4" width="2" height="1" fill="#221E1E"/>
<rect x="9" y="4" width="1" height="1" fill="#A5CD1C"/>
<rect x="10" y="4" width="1" height="1" fill="#ED1C22"/>
<rect x="11" y="4" width="1" height="1" fill="#F3521A"/>
<rect x="12" y="4" width="1" height="1" fill="#ED1C22"/>
<rect x="13" y="4" width="1" height="1" fill="#221E1E"/>
<rect x="6" y="5" width="2" height="1" fill="#221E1E"/>
<rect x="8" y="5" width="1" height="1" fill="#A5CD1C"/>
<rect x="9" y="5" width="1" height="1" fill="#CDE532"/>
<rect x="10" y="5" width="1" height="1" fill="#FBC707"/>
<rect x="11" y="5" width="2" height="1" fill="#221E1E"/>
<rect x="0" y="6" width="4" height="1" fill="#221E1E"/>
<rect x="5" y="6" width="2" height="1" fill="#221E1E"/>
<rect x="7" y="6" width="1" height="1" fill="#A5CD1C"/>
<rect x="8" y="6" width="1" height="1" fill="#CDE532"/>
<rect x="9" y="6" width="1" height="1" fill="#A5CD1C"/>
<rect x="10" y="6" width="1" height="1" fill="#FBC707"/>
<rect x="11" y="6" width="1" height="1" fill="#221E1E"/>
<rect x="0" y="7" width="1" height="1" fill="#221E1E"/>
<rect x="1" y="7" width="1" height="1" fill="#FBC707"/>
<rect x="2" y="7" width="1" height="1" fill="#A5CD1C"/>
<rect x="3" y="7" width="3" height="1" fill="#221E1E"/>
<rect x="6" y="7" width="1" height="1" fill="#A5CD1C"/>
<rect x="7" y="7" width="2" height="1" fill="#CDE532"/>
<rect x="9" y="7" width="1" height="1" fill="#FBC707"/>
<rect x="10" y="7" width="2" height="1" fill="#221E1E"/>
<rect x="0" y="8" width="1" height="1" fill="#221E1E"/>
<rect x="1" y="8" width="1" height="1" fill="#FBC707"/>
<rect x="2" y="8" width="1" height="1" fill="#CDE532"/>
<rect x="3" y="8" width="1" height="1" fill="#A5CD1C"/>
<rect x="4" y="8" width="1" height="1" fill="#221E1E"/>
<rect x="5" y="8" width="2" height="1" fill="#A5CD1C"/>
<rect x="7" y="8" width="1" height="1" fill="#CDE532"/>
<rect x="8" y="8" width="1" height="1" fill="#FBC707"/>
<rect x="9" y="8" width="2" height="1" fill="#221E1E"/>
<rect x="0" y="9" width="1" height="1" fill="#221E1E"/>
<rect x="1" y="9" width="1" height="1" fill="#FBC707"/>
<rect x="2" y="9" width="1" height="1" fill="#A5CD1C"/>
<rect x="3" y="9" width="1" height="1" fill="#CDE532"/>
<rect x="4" y="9" width="2" height="1" fill="#A5CD1C"/>
<rect x="6" y="9" width="1" height="1" fill="#CDE532"/>
<rect x="7" y="9" width="1" height="1" fill="#FBC707"/>
<rect x="8" y="9" width="2" height="1" fill="#221E1E"/>
<rect x="0" y="10" width="2" height="1" fill="#221E1E"/>
<rect x="2" y="10" width="1" height="1" fill="#FBC707"/>
<rect x="3" y="10" width="3" height="1" fill="#CDE532"/>
<rect x="6" y="10" width="1" height="1" fill="#A5CD1C"/>
<rect x="7" y="10" width="2" height="1" fill="#221E1E"/>
<rect x="1" y="11" width="2" height="1" fill="#221E1E"/>
<rect x="3" y="11" width="1" height="1" fill="#FBC707"/>
<rect x="4" y="11" width="1" height="1" fill="#CDE532"/>
<rect x="5" y="11" width="1" height="1" fill="#A5CD1C"/>
<rect x="6" y="11" width="1" height="1" fill="#FBC707"/>
<rect x="7" y="11" width="1" height="1" fill="#221E1E"/>
<rect x="2" y="12" width="2" height="1" fill="#221E1E"/>
<rect x="4" y="12" width="2" height="1" fill="#FBC707"/>
<rect x="6" y="12" width="2" height="1" fill="#221E1E"/>
<rect x="3" y="13" width="4" height="1" fill="#221E1E"/>
</svg>
